<svg width="140" height="40" viewBox="0 0 140 40" fill="none" xmlns="http://www.w3.org/2000/svg">
<path d="M50.712 25.1215C49.6987 25.1215 48.8293 24.9562 48.104 24.6255C47.3893 24.2949 46.8293 23.8095 46.424 23.1695C46.0293 22.5295 45.8107 21.7349 45.768 20.7855C45.7573 20.3482 45.752 19.8789 45.752 19.3775C45.752 18.8762 45.7573 18.3962 45.768 17.9375C45.8107 17.0095 46.0347 16.2255 46.44 15.5855C46.8453 14.9349 47.4107 14.4442 48.136 14.1135C48.8613 13.7722 49.72 13.6015 50.712 13.6015C51.416 13.6015 52.0667 13.6922 52.664 13.8735C53.2613 14.0442 53.784 14.3002 54.232 14.6415C54.68 14.9722 55.0267 15.3775 55.272 15.8575C55.528 16.3269 55.6613 16.8602 55.672 17.4575C55.6827 17.5535 55.6507 17.6335 55.576 17.6975C55.512 17.7615 55.432 17.7935 55.336 17.7935H53.176C53.0373 17.7935 52.9307 17.7669 52.856 17.7135C52.7813 17.6495 52.7173 17.5375 52.664 17.3775C52.5147 16.8122 52.2693 16.4282 51.928 16.2255C51.5973 16.0122 51.1867 15.9055 50.696 15.9055C50.1093 15.9055 49.6453 16.0709 49.304 16.4015C48.9627 16.7215 48.776 17.2602 48.744 18.0175C48.712 18.8922 48.712 19.7882 48.744 20.7055C48.776 21.4629 48.9627 22.0069 49.304 22.3375C49.6453 22.6575 50.1093 22.8175 50.696 22.8175C51.1867 22.8175 51.6027 22.7109 51.944 22.4975C52.2853 22.2842 52.5253 21.9002 52.664 21.3455C52.7067 21.1855 52.7653 21.0789 52.84 21.0255C52.9253 20.9615 53.0373 20.9295 53.176 20.9295H55.336C55.432 20.9295 55.512 20.9615 55.576 21.0255C55.6507 21.0895 55.6827 21.1695 55.672 21.2655C55.6613 21.8629 55.528 22.4015 55.272 22.8815C55.0267 23.3509 54.68 23.7562 54.232 24.0975C53.784 24.4282 53.2613 24.6842 52.664 24.8655C52.0667 25.0362 51.416 25.1215 50.712 25.1215ZM59.6904 24.9615C59.5837 24.9615 59.4877 24.9242 59.4024 24.8495C59.3277 24.7749 59.2904 24.6789 59.2904 24.5615V18.7375H56.8584C56.7517 18.7375 56.6557 18.7002 56.5704 18.6255C56.4957 18.5509 56.4584 18.4549 56.4584 18.3375V17.0415C56.4584 16.9242 56.4957 16.8282 56.5704 16.7535C56.6557 16.6789 56.7517 16.6415 56.8584 16.6415H64.3784C64.485 16.6415 64.5757 16.6789 64.6504 16.7535C64.7357 16.8282 64.7784 16.9242 64.7784 17.0415V18.3375C64.7784 18.4549 64.7357 18.5509 64.6504 18.6255C64.5757 18.7002 64.485 18.7375 64.3784 18.7375H61.9464V24.5615C61.9464 24.6789 61.909 24.7749 61.8344 24.8495C61.7597 24.9242 61.6637 24.9615 61.5464 24.9615H59.6904ZM69.88 25.1215C68.984 25.1215 68.2267 24.9775 67.608 24.6895C67 24.4015 66.5307 23.9909 66.2 23.4575C65.88 22.9135 65.6987 22.2682 65.656 21.5215C65.6453 21.3082 65.64 21.0682 65.64 20.8015C65.64 20.5242 65.6453 20.2842 65.656 20.0815C65.6987 19.3242 65.8907 18.6789 66.232 18.1455C66.5733 17.6122 67.048 17.2015 67.656 16.9135C68.2747 16.6255 69.016 16.4815 69.88 16.4815C70.7547 16.4815 71.496 16.6255 72.104 16.9135C72.7227 17.2015 73.2027 17.6122 73.544 18.1455C73.8853 18.6789 74.0773 19.3242 74.12 20.0815C74.1307 20.2842 74.136 20.5242 74.136 20.8015C74.136 21.0682 74.1307 21.3082 74.12 21.5215C74.0773 22.2682 73.8907 22.9135 73.56 23.4575C73.24 23.9909 72.7707 24.4015 72.152 24.6895C71.544 24.9775 70.7867 25.1215 69.88 25.1215ZM69.88 23.1695C70.36 23.1695 70.7067 23.0255 70.92 22.7375C71.144 22.4495 71.272 22.0175 71.304 21.4415C71.3147 21.2815 71.32 21.0682 71.32 20.8015C71.32 20.5349 71.3147 20.3215 71.304 20.1615C71.272 19.5962 71.144 19.1695 70.92 18.8815C70.7067 18.5829 70.36 18.4335 69.88 18.4335C69.4107 18.4335 69.064 18.5829 68.84 18.8815C68.616 19.1695 68.4933 19.5962 68.472 20.1615C68.4613 20.3215 68.456 20.5349 68.456 20.8015C68.456 21.0682 68.4613 21.2815 68.472 21.4415C68.4933 22.0175 68.616 22.4495 68.84 22.7375C69.064 23.0255 69.4107 23.1695 69.88 23.1695ZM76.1096 24.9615C75.9923 24.9615 75.8963 24.9242 75.8216 24.8495C75.747 24.7749 75.7096 24.6789 75.7096 24.5615V17.0415C75.7096 16.9242 75.747 16.8282 75.8216 16.7535C75.8963 16.6789 75.9923 16.6415 76.1096 16.6415H83.4376C83.555 16.6415 83.651 16.6789 83.7256 16.7535C83.8003 16.8282 83.8376 16.9242 83.8376 17.0415V24.5615C83.8376 24.6789 83.8003 24.7749 83.7256 24.8495C83.651 24.9242 83.555 24.9615 83.4376 24.9615H81.5496C81.443 24.9615 81.347 24.9242 81.2616 24.8495C81.187 24.7749 81.1496 24.6789 81.1496 24.5615V18.7375H78.3976V24.5615C78.3976 24.6789 78.355 24.7749 78.2696 24.8495C78.195 24.9242 78.1043 24.9615 77.9976 24.9615H76.1096Z" fill="#EC5863"/>
<path d="M86.3638 24.9615C86.2464 24.9615 86.1504 24.9242 86.0758 24.8495C86.0011 24.7749 85.9638 24.6789 85.9638 24.5615V14.1615C85.9638 14.0442 86.0011 13.9482 86.0758 13.8735C86.1504 13.7989 86.2464 13.7615 86.3638 13.7615H91.2438C92.1611 13.7615 92.9131 13.8895 93.4998 14.1455C94.0864 14.4015 94.5184 14.7695 94.7958 15.2495C95.0838 15.7189 95.2278 16.2789 95.2278 16.9295C95.2278 17.3135 95.1531 17.6549 95.0038 17.9535C94.8651 18.2415 94.6891 18.4815 94.4758 18.6735C94.2731 18.8655 94.0811 19.0042 93.8998 19.0895C94.3051 19.2815 94.6624 19.5962 94.9718 20.0335C95.2918 20.4709 95.4518 20.9829 95.4518 21.5695C95.4518 22.2735 95.2918 22.8815 94.9718 23.3935C94.6624 23.8949 94.2038 24.2842 93.5958 24.5615C92.9984 24.8282 92.2624 24.9615 91.3878 24.9615H86.3638ZM88.8278 22.8815H91.0678C91.5264 22.8815 91.8731 22.7482 92.1078 22.4815C92.3424 22.2149 92.4598 21.9109 92.4598 21.5695C92.4598 21.1962 92.3371 20.8815 92.0918 20.6255C91.8571 20.3695 91.5158 20.2415 91.0678 20.2415H88.8278V22.8815ZM88.8278 18.2095H90.9238C91.3611 18.2095 91.6864 18.0975 91.8998 17.8735C92.1238 17.6495 92.2358 17.3615 92.2358 17.0095C92.2358 16.6682 92.1238 16.3909 91.8998 16.1775C91.6864 15.9535 91.3611 15.8415 90.9238 15.8415H88.8278V18.2095ZM97.4374 24.9615C97.3307 24.9615 97.24 24.9242 97.1654 24.8495C97.0907 24.7749 97.0534 24.6842 97.0534 24.5775V17.0415C97.0534 16.9242 97.0907 16.8282 97.1654 16.7535C97.24 16.6789 97.336 16.6415 97.4534 16.6415H99.3414C99.448 16.6415 99.5387 16.6789 99.6134 16.7535C99.6987 16.8282 99.7414 16.9242 99.7414 17.0415V22.8815L99.0214 22.5295L102.973 16.8975C103.027 16.8229 103.091 16.7642 103.165 16.7215C103.24 16.6682 103.325 16.6415 103.421 16.6415H105.133C105.24 16.6415 105.331 16.6789 105.405 16.7535C105.48 16.8282 105.517 16.9189 105.517 17.0255V24.5615C105.517 24.6789 105.48 24.7749 105.405 24.8495C105.331 24.9242 105.235 24.9615 105.117 24.9615H103.229C103.112 24.9615 103.016 24.9242 102.941 24.8495C102.867 24.7749 102.829 24.6789 102.829 24.5615V18.8975L103.565 19.0415L99.5814 24.7055C99.5387 24.7802 99.48 24.8442 99.4054 24.8975C99.3307 24.9402 99.24 24.9615 99.1334 24.9615H97.4374ZM107.657 28.0015C107.539 28.0015 107.443 27.9642 107.368 27.8895C107.294 27.8149 107.257 27.7189 107.257 27.6015V17.0415C107.257 16.9242 107.294 16.8282 107.368 16.7535C107.443 16.6789 107.539 16.6415 107.657 16.6415H109.465C109.571 16.6415 109.662 16.6789 109.737 16.7535C109.822 16.8282 109.865 16.9242 109.865 17.0415V17.6335C110.11 17.3029 110.435 17.0309 110.841 16.8175C111.246 16.5935 111.747 16.4815 112.345 16.4815C112.878 16.4815 113.347 16.5669 113.753 16.7375C114.158 16.8975 114.505 17.1375 114.793 17.4575C115.081 17.7775 115.305 18.1669 115.465 18.6255C115.635 19.0842 115.731 19.6122 115.753 20.2095C115.763 20.4229 115.769 20.6202 115.769 20.8015C115.769 20.9829 115.763 21.1802 115.753 21.3935C115.731 21.9695 115.641 22.4869 115.481 22.9455C115.321 23.4042 115.097 23.7935 114.809 24.1135C114.521 24.4335 114.169 24.6842 113.753 24.8655C113.347 25.0362 112.878 25.1215 112.345 25.1215C111.822 25.1215 111.363 25.0309 110.969 24.8495C110.585 24.6575 110.265 24.3909 110.009 24.0495V27.6015C110.009 27.7189 109.971 27.8149 109.897 27.8895C109.822 27.9642 109.726 28.0015 109.609 28.0015H107.657ZM111.481 22.9775C111.843 22.9775 112.126 22.9029 112.329 22.7535C112.531 22.6042 112.675 22.4015 112.761 22.1455C112.857 21.8895 112.915 21.6069 112.937 21.2975C112.958 20.9669 112.958 20.6362 112.937 20.3055C112.915 19.9962 112.857 19.7135 112.761 19.4575C112.675 19.2015 112.531 18.9989 112.329 18.8495C112.126 18.7002 111.843 18.6255 111.481 18.6255C111.129 18.6255 110.846 18.7055 110.633 18.8655C110.419 19.0149 110.265 19.2122 110.169 19.4575C110.073 19.7029 110.019 19.9695 110.009 20.2575C109.998 20.4602 109.993 20.6575 109.993 20.8495C109.993 21.0415 109.998 21.2442 110.009 21.4575C110.019 21.7242 110.078 21.9749 110.185 22.2095C110.291 22.4335 110.451 22.6202 110.665 22.7695C110.878 22.9082 111.15 22.9775 111.481 22.9775ZM118.15 28.0175C118.033 28.0175 117.932 27.9749 117.846 27.8895C117.772 27.8149 117.734 27.7242 117.734 27.6175V26.3215C117.734 26.2042 117.772 26.1082 117.846 26.0335C117.932 25.9589 118.033 25.9215 118.15 25.9215H118.694C118.897 25.9215 119.062 25.8842 119.19 25.8095C119.318 25.7349 119.43 25.6122 119.526 25.4415C119.633 25.2815 119.745 25.0575 119.862 24.7695L123.062 16.9775C123.094 16.8815 123.148 16.8015 123.222 16.7375C123.297 16.6735 123.404 16.6415 123.542 16.6415H125.254C125.35 16.6415 125.43 16.6789 125.494 16.7535C125.569 16.8175 125.606 16.8922 125.606 16.9775C125.606 16.9989 125.601 17.0309 125.59 17.0735C125.59 17.1055 125.58 17.1429 125.558 17.1855L122.518 24.5135C122.305 25.0362 122.081 25.5109 121.846 25.9375C121.622 26.3642 121.377 26.7322 121.11 27.0415C120.844 27.3615 120.529 27.6015 120.166 27.7615C119.814 27.9322 119.404 28.0175 118.934 28.0175H118.15ZM120.038 24.7855L116.758 17.1855C116.726 17.1109 116.71 17.0469 116.71 16.9935C116.732 16.8975 116.774 16.8175 116.838 16.7535C116.902 16.6789 116.988 16.6415 117.094 16.6415H118.886C119.025 16.6415 119.126 16.6789 119.19 16.7535C119.265 16.8175 119.318 16.8922 119.35 16.9775L121.638 22.8335L120.038 24.7855ZM130.659 25.1215C129.869 25.1215 129.171 24.9775 128.563 24.6895C127.955 24.4015 127.469 23.9855 127.107 23.4415C126.755 22.8869 126.563 22.2255 126.531 21.4575C126.52 21.2869 126.515 21.0735 126.515 20.8175C126.515 20.5509 126.52 20.3322 126.531 20.1615C126.563 19.3829 126.755 18.7215 127.107 18.1775C127.459 17.6229 127.939 17.2015 128.547 16.9135C129.165 16.6255 129.869 16.4815 130.659 16.4815C131.395 16.4815 132.024 16.5882 132.547 16.8015C133.069 17.0042 133.496 17.2602 133.827 17.5695C134.157 17.8789 134.403 18.1989 134.563 18.5295C134.733 18.8495 134.824 19.1322 134.835 19.3775C134.845 19.4842 134.808 19.5802 134.723 19.6655C134.637 19.7402 134.541 19.7775 134.435 19.7775H132.403C132.285 19.7775 132.195 19.7509 132.131 19.6975C132.067 19.6442 132.008 19.5642 131.955 19.4575C131.827 19.1269 131.661 18.8922 131.459 18.7535C131.267 18.6149 131.016 18.5455 130.707 18.5455C130.28 18.5455 129.949 18.6842 129.715 18.9615C129.491 19.2389 129.368 19.6655 129.347 20.2415C129.336 20.6682 129.336 21.0469 129.347 21.3775C129.368 21.9642 129.491 22.3909 129.715 22.6575C129.949 22.9242 130.28 23.0575 130.707 23.0575C131.037 23.0575 131.299 22.9882 131.491 22.8495C131.683 22.7109 131.837 22.4762 131.955 22.1455C132.008 22.0389 132.067 21.9589 132.131 21.9055C132.195 21.8522 132.285 21.8255 132.403 21.8255H134.435C134.541 21.8255 134.637 21.8682 134.723 21.9535C134.808 22.0282 134.845 22.1189 134.835 22.2255C134.824 22.4069 134.771 22.6202 134.675 22.8655C134.579 23.1002 134.429 23.3509 134.227 23.6175C134.024 23.8842 133.757 24.1349 133.427 24.3695C133.107 24.5935 132.717 24.7749 132.259 24.9135C131.8 25.0522 131.267 25.1215 130.659 25.1215Z" fill="black"/>
<path d="M14.2208 4.98869C15.6455 4.48917 17.2113 5.16285 17.7174 6.49273C18.1048 7.51091 17.7581 8.61769 16.9363 9.30529L17.3804 10.5163L18.0869 11.3316C18.2482 11.5182 18.4928 11.6074 18.738 11.5772C19.3991 11.4959 20.056 11.4928 20.6993 11.5604C20.9173 11.5836 21.1342 11.5116 21.2907 11.3595L21.8005 10.8661L22.1764 9.77185C21.8566 9.33293 21.7483 8.75165 21.9379 8.19933C22.2597 7.26306 23.3107 6.77916 24.2454 7.16256C25.0506 7.49245 25.4887 8.38808 25.253 9.22153C25.1032 9.75239 24.7242 10.15 24.2576 10.3468L23.8415 11.5594L23.9364 12.2276C23.969 12.4573 24.1054 12.6579 24.3047 12.7782C24.9746 13.1847 25.5899 13.6817 26.1301 14.2562C26.3116 14.4496 26.5824 14.5325 26.8427 14.4801L28.1825 14.2111L29.6961 13.3717C29.7039 12.6274 30.1017 11.9079 30.8019 11.5195C31.8606 10.9326 33.2014 11.327 33.7655 12.4024C34.2748 13.3725 33.9551 14.592 33.0327 15.1892C32.3124 15.6547 31.4335 15.6377 30.7551 15.2402L29.2325 16.084L28.3823 16.9871C28.1541 17.2294 28.0728 17.572 28.1599 17.8928C28.1604 17.8947 28.1607 17.896 28.1612 17.8979C28.3102 18.4507 28.4006 19.0063 28.438 19.557C28.4597 19.8851 28.6454 20.1803 28.9362 20.3371L30.0459 20.9353L32.2454 21.35C32.6331 21.0124 33.1672 20.8491 33.713 20.9515C34.6915 21.1363 35.3215 22.1048 35.0708 23.0797C34.8551 23.9145 34.0325 24.4703 33.1723 24.3609C32.5857 24.2863 32.1121 23.9338 31.8578 23.4598L29.6441 23.0427L28.2787 23.2089C28.027 23.24 27.8072 23.3975 27.7046 23.628C27.296 24.5379 26.7323 25.3748 26.0364 26.0973C25.8634 26.2768 25.7985 26.5338 25.8613 26.7744L26.2006 28.0843L27.0384 29.3942C27.9599 29.2563 28.9188 29.6536 29.4508 30.4856C30.1659 31.6034 29.8415 33.0834 28.7285 33.8046C27.6161 34.5257 26.1023 34.2119 25.3732 33.1081C24.8627 32.3353 24.8571 31.382 25.2709 30.6257L24.3815 29.2354L23.288 28.3384C23.1261 28.2048 22.9054 28.1695 22.7078 28.2397C22.4885 28.3178 22.2649 28.3876 22.0362 28.4485C20.7935 28.7796 19.5406 28.8223 18.3489 28.6198C18.1742 28.5905 17.9955 28.6402 17.8619 28.7557L17.2751 29.2642L16.8386 30.336C17.1339 30.7923 17.2093 31.3783 16.9894 31.919C16.6156 32.8366 15.5392 33.2616 14.6276 32.8274C13.8425 32.4535 13.4548 31.535 13.7366 30.7157C13.916 30.1939 14.3158 29.8178 14.7928 29.6473L15.2763 28.4594L15.1865 27.4161C14.3146 26.8717 13.5388 26.1731 12.9044 25.3474L11.4132 25.4942L10.0175 26.1823C10.0266 27.1158 9.54482 28.0039 8.69918 28.4338C7.50426 29.0407 6.03648 28.5034 5.42117 27.2331C4.80604 25.9634 5.27521 24.4421 6.47012 23.8352C7.36433 23.3809 8.41073 23.5673 9.13879 24.2224L10.455 23.573L11.3685 22.5962C11.4282 22.5323 11.4503 22.4424 11.4276 22.3584L11.4273 22.3571C11.0051 20.7902 11.0482 19.2063 11.4718 17.7506C11.4945 17.6707 11.4774 17.5846 11.4235 17.521L10.6355 16.5826L8.93758 15.6942C8.46992 15.8994 7.9155 15.8988 7.42793 15.6434C6.54711 15.182 6.22972 14.0748 6.75476 13.2157C7.2157 12.4624 8.19747 12.1764 8.99469 12.5626C9.51073 12.8124 9.84362 13.2797 9.94203 13.7966L11.6399 14.6849L12.8484 14.7983C12.9323 14.8064 13.0141 14.7711 13.0674 14.7061C13.6155 14.0312 14.268 13.4354 15.0092 12.9467C15.2126 12.8119 15.339 12.5886 15.3422 12.3453L15.3547 11.2518L14.881 9.96133C13.8541 9.88759 12.9251 9.26768 12.557 8.30058C12.0509 6.97071 12.7959 5.48757 14.2208 4.98869Z" fill="#EC5863"/>
<path d="M25.9898 18.4765C25.0729 15.0737 21.5559 13.0542 18.1342 13.966C14.7125 14.8778 12.6819 18.3756 13.5988 21.7785C14.5156 25.1813 18.0327 27.2008 21.4543 26.289C24.876 25.3772 26.9066 21.8794 25.9898 18.4765Z" fill="#F58A97"/>
<path d="M20.9484 24.4109C17.8476 25.2372 14.6687 23.6565 13.4173 20.8204C13.4527 21.1391 13.5128 21.4592 13.5988 21.7785C14.5156 25.1814 18.0326 27.2008 21.4543 26.289C24.8761 25.3771 26.9066 21.8795 25.9898 18.4765C25.9037 18.1573 25.7949 17.8502 25.6653 17.5566C26.0073 20.635 24.049 23.5847 20.9484 24.4109Z" fill="#F07281"/>
<path d="M11.324 33.496C11.0629 32.5269 10.0614 31.9518 9.08698 32.2115C8.11258 32.4711 7.53433 33.4672 7.79542 34.4362C8.05651 35.4053 9.05807 35.9804 10.0325 35.7207C11.0069 35.4611 11.5851 34.465 11.324 33.496Z" fill="#EB5569"/>
<path d="M34.1106 27.9379C33.9381 27.2979 33.2766 26.918 32.633 27.0895C31.9894 27.261 31.6074 27.9189 31.7799 28.559C31.9523 29.1991 32.6139 29.5789 33.2575 29.4074C33.9011 29.2359 34.283 28.578 34.1106 27.9379Z" fill="#EB5569"/>
<path d="M30.8429 6.00213C30.5889 5.05936 29.6145 4.49988 28.6665 4.75249C27.7185 5.0051 27.1559 5.97416 27.4099 6.91693C27.6639 7.8597 28.6383 8.41918 29.5863 8.16656C30.5343 7.91395 31.0969 6.9449 30.8429 6.00213Z" fill="#EB5569"/>
<path d="M20.1955 22.0477C19.9587 21.1687 19.0502 20.6471 18.1664 20.8826C17.2826 21.1181 16.7581 22.0216 16.9949 22.9005C17.2318 23.7795 18.1402 24.3011 19.024 24.0656C19.9078 23.8301 20.4323 22.9266 20.1955 22.0477Z" fill="#EB5569"/>
<path d="M24.3108 19.5818C24.1496 18.9835 23.5313 18.6285 22.9297 18.7888C22.3281 18.9491 21.9711 19.564 22.1323 20.1623C22.2935 20.7606 22.9119 21.1156 23.5134 20.9553C24.115 20.795 24.472 20.18 24.3108 19.5818Z" fill="#EB5569"/>
<path d="M19.9578 17.0961C19.8224 16.5937 19.3032 16.2956 18.7981 16.4302C18.2929 16.5648 17.9931 17.0812 18.1285 17.5835C18.2639 18.0859 18.7831 18.384 19.2882 18.2494C19.7934 18.1148 20.0932 17.5984 19.9578 17.0961Z" fill="#EB5569"/>
</svg>
